<svg width="47" height="55" viewBox="0 0 47 55" fill="none" xmlns="http://www.w3.org/2000/svg">
<path d="M9.75016 18.3333L9.75245 39.9758C9.75245 41.949 11.3475 43.5417 13.3206 43.5417H14.3335V51.6588C14.3335 53.5013 15.9537 55 17.7939 55C19.641 55 21.2085 53.5013 21.2085 51.6565V43.5417H25.7918V51.6588C25.7918 53.5013 27.412 55 29.2545 55C31.1016 55 32.6668 53.5013 32.6668 51.6565V43.5417L33.6843 43.5394C35.6506 43.5394 37.2502 41.9444 37.2502 39.9712V18.3333H9.75016ZM46.4168 21.7044C46.4168 19.8596 44.8241 18.3333 42.9793 18.3333C41.1345 18.331 39.5418 19.8619 39.5418 21.7067V35.6996C39.5418 37.5467 41.1322 38.9583 42.9793 38.9583C44.8241 38.9583 46.4168 37.549 46.4168 35.6996V21.7044ZM7.4585 21.7044C7.4585 19.8596 5.86579 18.3333 4.021 18.3333C2.1762 18.331 0.583496 19.8619 0.583496 21.7067V35.6996C0.583496 37.5467 2.17391 38.9583 4.021 38.9583C5.86579 38.9583 7.4585 37.549 7.4585 35.6996V21.7044ZM30.2629 4.94771L32.417 0.6875C32.5729 0.385 32.3735 0 32.0435 0C31.8922 0 31.7456 0.0870833 31.6677 0.240625L29.4929 4.54438C25.9843 2.85542 21.3712 2.68354 17.5097 4.54438L15.3327 0.240625C15.257 0.0870833 15.1104 0 14.9568 0C14.6268 0 14.4275 0.385 14.5833 0.6875L16.7375 4.94771C12.5093 7.31729 9.75016 10.8694 9.75016 16.0394H37.2502C37.2502 10.8694 34.491 7.31729 30.2629 4.94771ZM17.7733 11.4583C17.1408 11.4583 16.6252 10.945 16.6252 10.3125C16.6252 9.68458 17.1408 9.16667 17.7733 9.16667C18.4058 9.16667 18.9168 9.68458 18.9168 10.3125C18.9168 10.945 18.4058 11.4583 17.7733 11.4583ZM29.227 11.4583C28.5945 11.4583 28.0835 10.945 28.0835 10.3125C28.0835 9.68458 28.5945 9.16667 29.227 9.16667C29.8595 9.16667 30.3752 9.68458 30.3752 10.3125C30.3752 10.945 29.8595 11.4583 29.227 11.4583Z" fill="#9BC53D"/>
</svg>
