<svg width="900" height="495" viewBox="0 0 900 495" fill="none" xmlns="http://www.w3.org/2000/svg">
<g clip-path="url(#clip0_76:32)">
<path d="M137.291 422.741C117.306 437.639 111.642 463.852 111.642 463.852C111.642 463.852 138.38 465.91 158.366 451.012C178.351 436.114 184.015 409.901 184.015 409.901C184.015 409.901 157.276 407.843 137.291 422.741Z" fill="#F1F1F1"/>
<path d="M145.616 429.736C136.011 452.738 111.955 464.592 111.955 464.592C111.955 464.592 103.473 439.151 113.078 416.148C122.683 393.146 146.739 381.293 146.739 381.293C146.739 381.293 155.222 406.733 145.616 429.736Z" fill="#F1F1F1"/>
<path d="M720.613 363.239C718.489 348.935 717.928 334.442 718.94 320.017L720.613 296.143C711.394 314.487 713.477 338.631 720.613 363.239V363.239Z" fill="#CACACA"/>
<path d="M727.802 367.233C726.779 358.697 726.51 350.088 726.997 341.505L727.802 327.295C723.366 338.214 724.368 352.585 727.802 367.233Z" fill="#CACACA"/>
<path d="M759.756 384.807V392.795C759.752 393.429 759.499 394.037 759.05 394.485C758.601 394.934 757.994 395.188 757.359 395.191H753.365C753.26 395.191 753.156 395.211 753.059 395.251C752.962 395.291 752.874 395.35 752.8 395.424C752.726 395.498 752.667 395.587 752.627 395.684C752.587 395.781 752.566 395.885 752.567 395.99V461.488C752.563 462.122 752.31 462.73 751.861 463.179C751.413 463.627 750.805 463.881 750.17 463.884H701.446C700.811 463.884 700.202 463.631 699.752 463.182C699.303 462.732 699.051 462.123 699.05 461.488V395.99C699.049 395.778 698.965 395.575 698.815 395.426C698.666 395.276 698.463 395.192 698.251 395.191H693.459C692.823 395.19 692.214 394.938 691.765 394.489C691.316 394.039 691.063 393.43 691.063 392.795V384.807C691.062 384.492 691.124 384.181 691.244 383.89C691.364 383.599 691.541 383.334 691.763 383.112C691.986 382.889 692.25 382.713 692.541 382.592C692.832 382.472 693.144 382.41 693.459 382.411H757.359C757.994 382.413 758.603 382.666 759.052 383.115C759.501 383.564 759.754 384.172 759.756 384.807V384.807Z" fill="#F2F2F2"/>
<path d="M752.639 396.868H699.122V399.265H752.639V396.868Z" fill="#E6E6E6"/>
<path d="M752.566 432.129C734.659 439.54 716.555 439.622 698.251 432.129V415.247C715.872 409.329 734.945 409.329 752.566 415.247V432.129Z" fill="#E6E6E6"/>
<path d="M452.599 174.008C492.576 174.008 524.984 141.601 524.984 101.624C524.984 61.6467 492.576 29.239 452.599 29.239C412.623 29.239 380.215 61.6467 380.215 101.624C380.215 141.601 412.623 174.008 452.599 174.008Z" fill="#FEB8B8"/>
<path d="M520.207 39.1762C509.385 21.6028 492.445 8.6536 472.648 2.82133L463.761 9.3061V0.885814C459.007 0.158124 454.195 -0.122203 449.388 0.0485195L441.721 6.98543V0.624841C430.37 2.03542 419.434 5.78266 409.603 11.6303C399.772 17.4779 391.259 25.299 384.602 34.6004C367.952 58.6026 365.142 91.9949 381.518 116.19C386.013 102.374 391.469 89.4119 395.965 75.5981C399.498 76.0797 403.079 76.097 406.617 75.6497L412.086 62.8881L413.614 75.1096C430.566 73.6332 455.71 70.3902 471.78 67.4192L470.217 58.043L479.567 65.834C484.49 64.7009 487.413 63.6724 487.172 62.8868C499.124 82.1555 513.751 94.4622 525.702 113.731C530.242 86.5609 535.467 63.9696 520.207 39.1762Z" fill="#2F2E41"/>
<path d="M608.278 287.763C605.789 272.788 603.222 257.526 596.262 244.036C591.688 235.2 584.427 226.78 574.639 225.032C572.711 224.86 570.816 224.422 569.009 223.729C566.141 222.347 527.6 200.346 521.475 196.514C516.215 193.225 507.912 187.134 503.726 187.134C499.514 187.041 483.365 190.8 420.332 185.873C420.332 185.873 403.016 192.698 389.617 200.974C389.414 200.84 324.195 235.863 321.745 235.77C317.104 235.575 312.791 238.546 310.131 242.287C307.472 246.029 306.224 250.66 304.918 255.138C319.163 286.862 332.196 318.625 346.443 350.349C347.11 351.544 347.464 352.888 347.473 354.256C347.187 355.676 346.581 357.012 345.701 358.163C338.715 369.386 338.937 383.501 339.7 396.691C340.464 409.881 341.408 423.813 335.513 435.636C333.91 438.882 331.825 441.853 330.3 445.098C326.729 452.45 325.439 475.962 327.524 483.86L588.85 491.347C583.231 475.902 608.278 287.763 608.278 287.763Z" fill="#9BC53D"/>
<path d="M282.329 351.755C281.808 355.527 281.755 359.349 282.173 363.134L285.918 416.924C286.27 421.994 286.616 427.051 287.092 432.108C287.991 441.922 289.333 451.659 290.999 461.381C291.037 462.761 291.621 464.07 292.622 465.021C293.624 465.971 294.962 466.485 296.343 466.451C312.83 469.939 329.865 469.8 346.691 468.849C372.368 467.416 438.058 464.705 442.072 459.491C446.085 454.278 443.746 445.845 438.513 441.629C433.28 437.414 346.592 427.136 346.592 427.136C347.439 420.424 349.994 414.102 352.418 407.729C356.772 396.426 360.839 384.751 360.917 372.643C360.995 360.534 356.433 347.803 346.514 340.866C338.355 335.171 327.849 334.115 317.907 334.349C310.673 334.557 298.173 332.824 291.566 335.653C286.337 337.955 283.306 346.635 282.329 351.755Z" fill="#FBBEBE"/>
<path d="M304.164 256.104C302.894 257.433 301.91 259.008 301.271 260.731C290.736 284.475 284.513 309.905 282.894 335.83C282.922 337.094 282.631 338.345 282.047 339.467C281.471 340.213 280.83 340.906 280.131 341.539C279.522 342.261 279.061 343.096 278.774 343.997C278.488 344.897 278.381 345.845 278.461 346.787C278.541 347.728 278.806 348.645 279.24 349.484C279.674 350.323 280.269 351.069 280.991 351.678C281.11 351.778 281.231 351.874 281.356 351.966C283.507 347.919 288.654 346.596 293.23 346.244C315.139 344.511 336.54 354.704 358.515 353.935C356.964 348.578 354.734 343.43 353.47 338.008C347.878 313.935 361.825 287.725 353.275 264.538C351.567 259.898 348.713 255.336 344.217 253.303C342.355 252.552 340.407 252.036 338.417 251.768C332.864 250.765 321.811 246.476 316.443 248.197C314.461 248.836 313.679 250.699 312.037 251.825C309.542 253.419 306.232 254.005 304.164 256.104Z" fill="#9BC53D"/>
<path d="M608.434 335.653C601.827 332.824 589.328 334.557 582.093 334.349C572.151 334.115 561.645 335.171 553.486 340.866C543.567 347.803 539.005 360.534 539.083 372.643C539.162 384.751 543.228 396.426 547.582 407.729C550.006 414.102 552.561 420.424 553.408 427.136C553.408 427.136 466.72 437.414 461.487 441.629C456.254 445.845 453.915 454.278 457.928 459.491C461.942 464.705 587.17 469.939 603.658 466.451C605.038 466.485 606.376 465.971 607.378 465.021C608.379 464.07 608.963 462.761 609.001 461.381C610.667 451.659 612.009 441.922 612.908 432.108C613.384 427.051 613.73 421.994 614.082 416.924L617.827 363.134C618.245 359.349 618.192 355.527 617.671 351.755C616.694 346.635 613.663 337.955 608.434 335.653Z" fill="#FBBEBE"/>
<path d="M587.963 251.825C586.32 250.699 585.539 248.836 583.557 248.197C578.189 246.476 567.136 250.765 561.583 251.768C559.593 252.037 557.645 252.552 555.783 253.303C551.287 255.336 548.433 259.898 546.725 264.538C538.175 287.725 552.122 313.935 546.53 338.008C545.266 343.43 543.036 348.578 541.485 353.935C563.46 354.704 584.861 344.511 606.77 346.244C611.346 346.596 616.493 347.919 618.644 351.966C618.769 351.874 618.89 351.778 619.009 351.678C619.731 351.069 620.326 350.323 620.76 349.484C621.194 348.645 621.459 347.728 621.539 346.787C621.619 345.845 621.512 344.897 621.226 343.997C620.939 343.096 620.478 342.261 619.869 341.539C619.17 340.906 618.529 340.213 617.953 339.467C617.369 338.345 617.078 337.094 617.106 335.83C615.487 309.905 609.264 284.475 598.729 260.731C598.09 259.008 597.106 257.433 595.836 256.104C593.768 254.005 590.458 253.419 587.963 251.825Z" fill="#9BC53D"/>
<path d="M431.161 469.019C441.95 469.019 450.697 460.273 450.697 449.483C450.697 438.693 441.95 429.946 431.161 429.946C420.371 429.946 411.624 438.693 411.624 449.483C411.624 460.273 420.371 469.019 431.161 469.019Z" fill="#FBBEBE"/>
<path d="M474.42 469.019C485.21 469.019 493.957 460.273 493.957 449.483C493.957 438.693 485.21 429.946 474.42 429.946C463.631 429.946 454.884 438.693 454.884 449.483C454.884 460.273 463.631 469.019 474.42 469.019Z" fill="#FBBEBE"/>
<path d="M595.016 493.506H326.612C323.478 493.502 320.474 492.256 318.258 490.04C316.042 487.825 314.796 484.82 314.792 481.687V318.854C314.796 315.72 316.042 312.716 318.258 310.5C320.474 308.284 323.478 307.038 326.612 307.035H595.016C598.149 307.038 601.154 308.284 603.37 310.5C605.585 312.716 606.832 315.72 606.836 318.854V481.687C606.832 484.82 605.585 487.825 603.37 490.04C601.154 492.256 598.149 493.502 595.016 493.506Z" fill="#3F3D56"/>
<path d="M460.163 408.091C464.482 408.091 467.983 404.589 467.983 400.27C467.983 395.951 464.482 392.45 460.163 392.45C455.844 392.45 452.343 395.951 452.343 400.27C452.343 404.589 455.844 408.091 460.163 408.091Z" fill="white"/>
<path d="M900 460.662H0V488.319H53.234V494.747H846.786V488.319H900V460.662Z" fill="#F1F1F1"/>
<path d="M386.037 128.603C374.406 128.603 364.978 118.408 364.978 105.833V94.4476C364.978 81.872 374.406 71.6775 386.037 71.6775V128.603H386.037Z" fill="#9BC53D"/>
<path d="M520.452 71.6775C532.083 71.6775 541.512 81.872 541.512 94.4476V105.833C541.512 118.408 532.083 128.603 520.452 128.603V71.6775Z" fill="#9BC53D"/>
<path d="M531.488 96.2367H528.146C528.146 50.4188 493.671 13.143 451.296 13.143C408.92 13.143 374.445 50.4188 374.445 96.2367H371.104C371.104 48.4266 407.078 9.53027 451.296 9.53027C495.514 9.53029 531.488 48.4266 531.488 96.2367Z" fill="#9BC53D"/>
</g>
<defs>
<clipPath id="clip0_76:32">
<rect width="900" height="494.747" fill="white"/>
</clipPath>
</defs>
</svg>
