<svg width="40" height="35" viewBox="0 0 40 35" fill="none" xmlns="http://www.w3.org/2000/svg">
<path d="M0 3.98148C0 2.82741 0.450463 1.87531 1.35135 1.1252C2.25224 0.375056 3.42344 0 4.86486 0C6.28058 0 7.42598 0.369274 8.30116 1.10789C9.20205 1.86957 9.65251 2.86203 9.65251 4.08535C9.65251 5.19324 9.21494 6.11646 8.33977 6.85508C7.43888 7.61675 6.25483 7.99759 4.78764 7.99759H4.74903C3.33332 7.99759 2.18791 7.61675 1.31274 6.85508C0.437568 6.0934 0 5.13553 0 3.98148ZM0.50193 34.2754V11.1482H9.07336V34.2754H0.50193ZM13.8224 34.2754H22.3938V21.3615C22.3938 20.5537 22.4968 19.9305 22.7027 19.492C23.063 18.7072 23.61 18.0436 24.3436 17.5012C25.0772 16.9588 25.9974 16.6876 27.1042 16.6876C29.9871 16.6876 31.4286 18.4302 31.4286 21.9155V34.2754H40V21.0153C40 17.5993 39.0991 15.0085 37.2973 13.2428C35.4955 11.4771 33.1146 10.5942 30.1544 10.5942C26.834 10.5942 24.2471 11.8752 22.3938 14.4372V14.5065H22.3552L22.3938 14.4372V11.1482H13.8224C13.8739 11.8867 13.8996 14.1833 13.8996 18.0379C13.8996 21.8924 13.8739 27.3049 13.8224 34.2754Z" fill="#9BC53D"/>
</svg>
