<svg width="45" height="32" viewBox="0 0 45 32" fill="none" xmlns="http://www.w3.org/2000/svg">
<path d="M34.8014 17.756C32.7318 17.756 30.7925 16.898 29.0306 15.5011L29.4596 13.5293L29.4783 13.4562C29.8603 11.3567 31.0723 7.83265 34.8014 7.83265C37.598 7.83265 39.8729 10.0603 39.8729 12.7988C39.8634 15.5284 37.5888 17.756 34.8014 17.756ZM34.8014 2.80265C30.0374 2.80265 26.3459 5.83351 24.8451 10.818C22.5516 7.44929 20.8176 3.40522 19.8015 0H14.6741V13.0636C14.6741 15.638 12.5299 17.7375 9.90092 17.7375C7.27193 17.7375 5.12795 15.638 5.12795 13.0636V0H5.84749e-05V13.0636C-0.0185956 18.4134 4.4283 22.8043 9.89122 22.8043C15.3544 22.8043 19.8013 18.4134 19.8013 13.0636V10.8728C20.7986 12.9084 22.0199 14.9624 23.5023 16.7884L20.3604 31.2485H25.6092L27.8837 20.7594C29.8787 22.0101 32.1722 22.7953 34.8012 22.7953C40.4225 22.7953 45 18.2855 45 12.7806C45 7.28489 40.4225 2.80265 34.8012 2.80265H34.8014Z" fill="#9BC53D"/>
</svg>
